<?xml version="1.0" encoding="UTF-8" standalone="no"?>
<!-- Created with Inkscape (http://www.inkscape.org/) -->

<svg
   xmlns:dc="http://purl.org/dc/elements/1.1/"
   xmlns:cc="http://creativecommons.org/ns#"
   xmlns:rdf="http://www.w3.org/1999/02/22-rdf-syntax-ns#"
   xmlns:svg="http://www.w3.org/2000/svg"
   xmlns="http://www.w3.org/2000/svg"
   xmlns:xlink="http://www.w3.org/1999/xlink"
   xmlns:sodipodi="http://sodipodi.sourceforge.net/DTD/sodipodi-0.dtd"
   xmlns:inkscape="http://www.inkscape.org/namespaces/inkscape"
   version="1.0"
   width="96"
   height="96"
   id="svg2408"
   inkscape:version="0.48+devel r12485"
   sodipodi:docname="android.svg">
  <sodipodi:namedview
     pagecolor="#ffffff"
     bordercolor="#666666"
     borderopacity="1"
     objecttolerance="10"
     gridtolerance="10"
     guidetolerance="10"
     inkscape:pageopacity="0"
     inkscape:pageshadow="2"
     inkscape:window-width="1366"
     inkscape:window-height="692"
     id="namedview5680"
     showgrid="false"
     inkscape:zoom="2.4583333"
     inkscape:cx="48"
     inkscape:cy="48"
     inkscape:window-x="0"
     inkscape:window-y="25"
     inkscape:window-maximized="1"
     inkscape:current-layer="svg2408" />
  <defs
     id="defs2410">
    <linearGradient
       x1="45.447727"
       y1="92.539597"
       x2="45.447727"
       y2="7.0165396"
       id="ButtonShadow"
       gradientUnits="userSpaceOnUse"
       gradientTransform="scale(1.0058652,0.994169)">
      <stop
         id="stop3750"
         style="stop-color:#000000;stop-opacity:1"
         offset="0" />
      <stop
         id="stop3752"
         style="stop-color:#000000;stop-opacity:0.58823532"
         offset="1" />
    </linearGradient>
    <linearGradient
       id="linearGradient3737">
      <stop
         id="stop3739"
         style="stop-color:#ffffff;stop-opacity:1"
         offset="0" />
      <stop
         id="stop3741"
         style="stop-color:#ffffff;stop-opacity:0"
         offset="1" />
    </linearGradient>
    <filter
       color-interpolation-filters="sRGB"
       id="filter3174">
      <feGaussianBlur
         id="feGaussianBlur3176"
         stdDeviation="1.71" />
    </filter>
    <linearGradient
       x1="36.357143"
       y1="6"
       x2="36.357143"
       y2="63.893143"
       id="linearGradient3188"
       xlink:href="#linearGradient3737"
       gradientUnits="userSpaceOnUse" />
    <filter
       x="-0.192"
       y="-0.192"
       width="1.3839999"
       height="1.3839999"
       color-interpolation-filters="sRGB"
       id="filter3794">
      <feGaussianBlur
         id="feGaussianBlur3796"
         stdDeviation="5.28" />
    </filter>
    <linearGradient
       x1="48"
       y1="20.220806"
       x2="48"
       y2="138.66119"
       id="linearGradient3613"
       xlink:href="#linearGradient3737"
       gradientUnits="userSpaceOnUse" />
    <radialGradient
       cx="48"
       cy="90.171875"
       r="42"
       fx="48"
       fy="90.171875"
       id="radialGradient3619"
       xlink:href="#linearGradient3737"
       gradientUnits="userSpaceOnUse"
       gradientTransform="matrix(1.1573129,0,0,0.99590774,-7.5510206,0.19713193)" />
    <clipPath
       id="clipPath3613">
      <rect
         width="84"
         height="84"
         rx="6"
         ry="6"
         x="6"
         y="6"
         id="rect3615"
         style="fill:#ffffff;fill-opacity:1;fill-rule:nonzero;stroke:none" />
    </clipPath>
    <linearGradient
       x1="48"
       y1="90"
       x2="48"
       y2="5.9877172"
       id="linearGradient3617"
       xlink:href="#ButtonColor-2"
       gradientUnits="userSpaceOnUse" />
    <linearGradient
       x1="45.447727"
       y1="92.539597"
       x2="45.447727"
       y2="7.0165396"
       id="ButtonShadow-0"
       gradientUnits="userSpaceOnUse"
       gradientTransform="matrix(1.0058652,0,0,0.994169,100,0)">
      <stop
         id="stop3750-8"
         style="stop-color:#000000;stop-opacity:1"
         offset="0" />
      <stop
         id="stop3752-5"
         style="stop-color:#000000;stop-opacity:0.58823532"
         offset="1" />
    </linearGradient>
    <linearGradient
       x1="32.251034"
       y1="6.1317081"
       x2="32.251034"
       y2="90.238609"
       id="linearGradient3780"
       xlink:href="#ButtonShadow-0"
       gradientUnits="userSpaceOnUse"
       gradientTransform="matrix(1.0238095,0,0,1.0119048,-1.1428571,-98.071429)" />
    <linearGradient
       x1="32.251034"
       y1="6.1317081"
       x2="32.251034"
       y2="90.238609"
       id="linearGradient3772"
       xlink:href="#ButtonShadow-0"
       gradientUnits="userSpaceOnUse"
       gradientTransform="matrix(1.0238095,0,0,1.0119048,-1.1428571,-98.071429)" />
    <linearGradient
       x1="32.251034"
       y1="6.1317081"
       x2="32.251034"
       y2="90.238609"
       id="linearGradient3725"
       xlink:href="#ButtonShadow-0"
       gradientUnits="userSpaceOnUse"
       gradientTransform="matrix(1.0238095,0,0,1.0119048,-1.1428571,-98.071429)" />
    <linearGradient
       x1="32.251034"
       y1="6.1317081"
       x2="32.251034"
       y2="90.238609"
       id="linearGradient3721"
       xlink:href="#ButtonShadow-0"
       gradientUnits="userSpaceOnUse"
       gradientTransform="translate(0,-97)" />
    <linearGradient
       x1="32.251034"
       y1="6.1317081"
       x2="32.251034"
       y2="90.238609"
       id="linearGradient3026"
       xlink:href="#ButtonShadow-0"
       gradientUnits="userSpaceOnUse"
       gradientTransform="matrix(1.0238095,0,0,1.0119048,-1.1428571,-98.071429)" />
    <linearGradient
       x1="10.362526"
       y1="20.410082"
       x2="10.362526"
       y2="4.2521005"
       id="linearGradient3089"
       xlink:href="#linearGradient5408"
       gradientUnits="userSpaceOnUse"
       gradientTransform="matrix(3.0237157,0,0,2.3517789,18.666667,20)" />
    <linearGradient
       x1="10.31979"
       y1="21"
       x2="10.31979"
       y2="0.99929649"
       id="linearGradient5408"
       gradientUnits="userSpaceOnUse">
      <stop
         id="stop5410"
         style="stop-color:#6c9707;stop-opacity:1"
         offset="0" />
      <stop
         id="stop5412"
         style="stop-color:#9edb0a;stop-opacity:1"
         offset="1" />
    </linearGradient>
    <linearGradient
       x1="10.31979"
       y1="21"
       x2="10.31979"
       y2="0.99929649"
       id="ButtonColor-2"
       gradientUnits="userSpaceOnUse">
      <stop
         id="stop3189-6"
         style="stop-color:#e6e6e6;stop-opacity:1"
         offset="0" />
      <stop
         id="stop3191-6"
         style="stop-color:#fafafa;stop-opacity:1"
         offset="1" />
    </linearGradient>
    <clipPath
       clipPathUnits="userSpaceOnUse"
       id="clipPath36">
      <path
         inkscape:connector-curvature="0"
         d="M 0,400 530,400 530,0 0,0 0,400 Z"
         id="path38" />
    </clipPath>
  </defs>
  <metadata
     id="metadata2413">
    <rdf:RDF>
      <cc:Work
         rdf:about="">
        <dc:format>image/svg+xml</dc:format>
        <dc:type
           rdf:resource="http://purl.org/dc/dcmitype/StillImage" />
        <dc:title></dc:title>
      </cc:Work>
    </rdf:RDF>
  </metadata>
  <g
     id="layer2"
     style="display:none">
    <rect
       width="86"
       height="85"
       rx="6"
       ry="6"
       x="5"
       y="7"
       id="rect3745"
       style="opacity:0.9;fill:url(#ButtonShadow);fill-opacity:1;fill-rule:nonzero;stroke:none;filter:url(#filter3174)" />
  </g>
  <g
     id="layer3">
    <path
       d="m 12,-95.03125 c -5.5110903,0 -10.03125,4.52016 -10.03125,10.03125 l 0,71 c 0,5.5110902 4.5201598,10.03125 10.03125,10.03125 l 72,0 c 5.51109,0 10.03125,-4.5201597 10.03125,-10.03125 l 0,-71 c 0,-5.51109 -4.52016,-10.03125 -10.03125,-10.03125 l -72,0 z"
       transform="scale(1,-1)"
       id="path3786"
       style="opacity:0.07999998;fill:url(#linearGradient3026);fill-opacity:1;fill-rule:nonzero;stroke:none;display:inline" />
    <path
       d="m 12,-94.03125 c -4.971633,0 -9.03125,4.059617 -9.03125,9.03125 l 0,71 c 0,4.9716329 4.0596171,9.03125 9.03125,9.03125 l 72,0 c 4.971633,0 9.03125,-4.059617 9.03125,-9.03125 l 0,-71 c 0,-4.971633 -4.059617,-9.03125 -9.03125,-9.03125 l -72,0 z"
       transform="scale(1,-1)"
       id="path3778"
       style="opacity:0.1;fill:url(#linearGradient3780);fill-opacity:1;fill-rule:nonzero;stroke:none;display:inline" />
    <path
       d="m 12,-93 c -4.4091333,0 -8,3.590867 -8,8 l 0,71 c 0,4.4091333 3.5908667,8 8,8 l 72,0 c 4.409133,0 8,-3.5908667 8,-8 l 0,-71 c 0,-4.409133 -3.590867,-8 -8,-8 l -72,0 z"
       transform="scale(1,-1)"
       id="path3770"
       style="opacity:0.2;fill:url(#linearGradient3772);fill-opacity:1;fill-rule:nonzero;stroke:none;display:inline" />
    <rect
       width="86"
       height="85"
       rx="7"
       ry="7"
       x="5"
       y="-92"
       transform="scale(1,-1)"
       id="rect3723"
       style="opacity:0.3;fill:url(#linearGradient3725);fill-opacity:1;fill-rule:nonzero;stroke:none;display:inline" />
    <rect
       width="84"
       height="84"
       rx="6"
       ry="6"
       x="6"
       y="-91"
       transform="scale(1,-1)"
       id="rect3716"
       style="opacity:0.45;fill:url(#linearGradient3721);fill-opacity:1;fill-rule:nonzero;stroke:none;display:inline" />
  </g>
  <g
     id="layer1">
    <rect
       width="84"
       height="84"
       rx="6"
       ry="6"
       x="6"
       y="6"
       id="rect2419"
       style="fill:url(#linearGradient3617);fill-opacity:1;fill-rule:nonzero;stroke:none" />
    <path
       d="M 12,6 C 8.676,6 6,8.676 6,12 l 0,2 0,68 0,2 c 0,0.334721 0.04135,0.6507 0.09375,0.96875 0.0487,0.295596 0.09704,0.596915 0.1875,0.875 0.00988,0.03038 0.020892,0.0636 0.03125,0.09375 0.098865,0.287771 0.2348802,0.547452 0.375,0.8125 0.1445918,0.273507 0.3156161,0.535615 0.5,0.78125 0.1843839,0.245635 0.3737765,0.473472 0.59375,0.6875 0.439947,0.428056 0.94291,0.814526 1.5,1.09375 0.278545,0.139612 0.5734731,0.246947 0.875,0.34375 -0.2562018,-0.100222 -0.4867109,-0.236272 -0.71875,-0.375 -0.00741,-0.0044 -0.023866,0.0045 -0.03125,0 -0.031933,-0.0193 -0.062293,-0.04251 -0.09375,-0.0625 -0.120395,-0.0767 -0.2310226,-0.163513 -0.34375,-0.25 -0.1061728,-0.0808 -0.2132809,-0.161112 -0.3125,-0.25 C 8.4783201,88.557317 8.3087904,88.373362 8.15625,88.1875 8.0486711,88.057245 7.9378561,87.922215 7.84375,87.78125 7.818661,87.74287 7.805304,87.69538 7.78125,87.65625 7.716487,87.553218 7.6510225,87.451733 7.59375,87.34375 7.4927417,87.149044 7.3880752,86.928049 7.3125,86.71875 7.30454,86.69694 7.288911,86.6782 7.28125,86.65625 7.2494249,86.5643 7.2454455,86.469419 7.21875,86.375 7.1884177,86.268382 7.1483606,86.171969 7.125,86.0625 7.0521214,85.720988 7,85.364295 7,85 L 7,83 7,15 7,13 C 7,10.218152 9.2181517,8 12,8 l 2,0 68,0 2,0 c 2.781848,0 5,2.218152 5,5 l 0,2 0,68 0,2 c 0,0.364295 -0.05212,0.720988 -0.125,1.0625 -0.04415,0.206893 -0.08838,0.397658 -0.15625,0.59375 -0.0077,0.02195 -0.0233,0.04069 -0.03125,0.0625 -0.06274,0.173739 -0.138383,0.367449 -0.21875,0.53125 -0.04158,0.0828 -0.07904,0.169954 -0.125,0.25 -0.0546,0.09721 -0.126774,0.18835 -0.1875,0.28125 -0.09411,0.140965 -0.204921,0.275995 -0.3125,0.40625 -0.143174,0.17445 -0.303141,0.346998 -0.46875,0.5 -0.01117,0.0102 -0.01998,0.02115 -0.03125,0.03125 -0.138386,0.125556 -0.285091,0.234436 -0.4375,0.34375 -0.102571,0.07315 -0.204318,0.153364 -0.3125,0.21875 -0.0074,0.0045 -0.02384,-0.0044 -0.03125,0 -0.232039,0.138728 -0.462548,0.274778 -0.71875,0.375 0.301527,-0.0968 0.596455,-0.204138 0.875,-0.34375 0.55709,-0.279224 1.060053,-0.665694 1.5,-1.09375 0.219973,-0.214028 0.409366,-0.441865 0.59375,-0.6875 0.184384,-0.245635 0.355408,-0.507743 0.5,-0.78125 0.14012,-0.265048 0.276135,-0.524729 0.375,-0.8125 0.01041,-0.03078 0.02133,-0.06274 0.03125,-0.09375 0.09046,-0.278085 0.1388,-0.579404 0.1875,-0.875 C 89.95865,84.6507 90,84.334721 90,84 l 0,-2 0,-68 0,-2 C 90,8.676 87.324,6 84,6 L 12,6 z"
       inkscape:connector-curvature="0"
       id="rect3728"
       style="opacity:0.6;fill:url(#linearGradient3188);fill-opacity:1;fill-rule:nonzero;stroke:none" />
    <path
       d="M 12,90 C 8.676,90 6,87.324 6,84 L 6,82 6,14 6,12 c 0,-0.334721 0.04135,-0.6507 0.09375,-0.96875 0.0487,-0.295596 0.09704,-0.596915 0.1875,-0.875 C 6.29113,10.12587 6.302142,10.09265 6.3125,10.0625 6.411365,9.774729 6.5473802,9.515048 6.6875,9.25 6.8320918,8.976493 7.0031161,8.714385 7.1875,8.46875 7.3718839,8.223115 7.5612765,7.995278 7.78125,7.78125 8.221197,7.353194 8.72416,6.966724 9.28125,6.6875 9.559795,6.547888 9.8547231,6.440553 10.15625,6.34375 9.9000482,6.443972 9.6695391,6.580022 9.4375,6.71875 c -0.00741,0.0044 -0.023866,-0.0045 -0.03125,0 -0.031933,0.0193 -0.062293,0.04251 -0.09375,0.0625 -0.120395,0.0767 -0.2310226,0.163513 -0.34375,0.25 -0.1061728,0.0808 -0.2132809,0.161112 -0.3125,0.25 C 8.4783201,7.442683 8.3087904,7.626638 8.15625,7.8125 8.0486711,7.942755 7.9378561,8.077785 7.84375,8.21875 7.818661,8.25713 7.805304,8.30462 7.78125,8.34375 7.716487,8.446782 7.6510225,8.548267 7.59375,8.65625 7.4927417,8.850956 7.3880752,9.071951 7.3125,9.28125 7.30454,9.30306 7.288911,9.3218 7.28125,9.34375 7.2494249,9.4357 7.2454455,9.530581 7.21875,9.625 7.1884177,9.731618 7.1483606,9.828031 7.125,9.9375 7.0521214,10.279012 7,10.635705 7,11 l 0,2 0,68 0,2 c 0,2.781848 2.2181517,5 5,5 l 2,0 68,0 2,0 c 2.781848,0 5,-2.218152 5,-5 l 0,-2 0,-68 0,-2 C 89,10.635705 88.94788,10.279012 88.875,9.9375 88.83085,9.730607 88.78662,9.539842 88.71875,9.34375 88.71105,9.3218 88.69545,9.30306 88.6875,9.28125 88.62476,9.107511 88.549117,8.913801 88.46875,8.75 88.42717,8.6672 88.38971,8.580046 88.34375,8.5 88.28915,8.40279 88.216976,8.31165 88.15625,8.21875 88.06214,8.077785 87.951329,7.942755 87.84375,7.8125 87.700576,7.63805 87.540609,7.465502 87.375,7.3125 87.36383,7.3023 87.35502,7.29135 87.34375,7.28125 87.205364,7.155694 87.058659,7.046814 86.90625,6.9375 86.803679,6.86435 86.701932,6.784136 86.59375,6.71875 c -0.0074,-0.0045 -0.02384,0.0044 -0.03125,0 -0.232039,-0.138728 -0.462548,-0.274778 -0.71875,-0.375 0.301527,0.0968 0.596455,0.204138 0.875,0.34375 0.55709,0.279224 1.060053,0.665694 1.5,1.09375 0.219973,0.214028 0.409366,0.441865 0.59375,0.6875 0.184384,0.245635 0.355408,0.507743 0.5,0.78125 0.14012,0.265048 0.276135,0.524729 0.375,0.8125 0.01041,0.03078 0.02133,0.06274 0.03125,0.09375 0.09046,0.278085 0.1388,0.579404 0.1875,0.875 C 89.95865,11.3493 90,11.665279 90,12 l 0,2 0,68 0,2 c 0,3.324 -2.676,6 -6,6 l -72,0 z"
       inkscape:connector-curvature="0"
       id="path3615"
       style="opacity:0.3;fill:url(#radialGradient3619);fill-opacity:1;fill-rule:nonzero;stroke:none" />
  </g>
  <g
     id="layer5">
    <rect
       width="66"
       height="66"
       rx="12"
       ry="12"
       x="15"
       y="15"
       clip-path="url(#clipPath3613)"
       id="rect3171"
       style="opacity:0.1;fill:url(#linearGradient3613);fill-opacity:1;fill-rule:nonzero;stroke:#ffffff;stroke-width:0.5;stroke-linecap:round;stroke-linejoin:miter;stroke-miterlimit:4;stroke-opacity:1;stroke-dasharray:none;stroke-dashoffset:0;filter:url(#filter3794)" />
  </g>
  <g
     transform="matrix(0.44640767,0,0,-0.44640767,-70.273339,138.14184)"
     id="g32">
    <g
       id="g34"
       clip-path="url(#clipPath36)">
      <g
         id="g40"
         transform="translate(218.5488,122.1201)">
        <path
           inkscape:connector-curvature="0"
           d="m 0,0 0,17.894 -10.041,0 c -5.341,0 -9.673,-4.006 -9.673,-8.949 0,-4.94 4.332,-8.945 9.673,-8.945 l 3.077,0 0,3.89 -3.063,0 c -3.106,0 -5.636,2.185 -5.636,5.055 0,2.873 2.468,5.059 5.573,5.059 l 6.23,0 L -3.86,0 0,0 Z"
           style="fill:#3484a3;fill-opacity:1;fill-rule:evenodd;stroke:none"
           id="path42" />
      </g>
      <g
         id="g44"
         transform="translate(231.3379,140.6865)">
        <path
           inkscape:connector-curvature="0"
           d="m 0,0 c -5.128,0 -9.287,-3.529 -9.287,-8.879 l 0,-9.686 3.778,0 0,9.902 c 0,3.445 2.944,5.434 5.509,5.434 2.563,0 5.457,-1.989 5.457,-5.434 l -0.002,-9.902 3.832,0 0,9.686 C 9.287,-3.529 5.129,0 0,0"
           style="fill:#3484a3;fill-opacity:1;fill-rule:evenodd;stroke:none"
           id="path46" />
      </g>
      <g
         id="g48"
         transform="translate(261.541,131.1777)">
        <path
           inkscape:connector-curvature="0"
           d="m 0,0 c 0,5.158 -3.405,8.836 -8.535,8.836 l -8.513,0 0,-3.89 8.719,0 c 3.305,0 4.67,-2.313 4.67,-4.891 0,-2.578 -1.416,-5.223 -4.721,-5.223 l -8.719,0.002 0,-3.852 8.514,0 C -3.458,-9.018 0,-5.155 0,0"
           style="fill:#3484a3;fill-opacity:1;fill-rule:evenodd;stroke:none"
           id="path50" />
      </g>
      <g
         id="g52"
         transform="translate(331.9658,131.1777)">
        <path
           inkscape:connector-curvature="0"
           d="m 0,0 c 0,5.158 -3.409,8.836 -8.538,8.836 l -8.511,0 0,-3.89 8.719,0 c 3.305,0 4.667,-2.313 4.667,-4.891 0,-2.578 -1.414,-5.223 -4.72,-5.223 l -8.718,0.002 0,-3.852 8.512,0 C -3.46,-9.018 0,-5.155 0,0"
           style="fill:#3484a3;fill-opacity:1;fill-rule:evenodd;stroke:none"
           id="path54" />
      </g>
      <g
         id="g56"
         transform="translate(279.1992,128.1631)">
        <path
           inkscape:connector-curvature="0"
           d="m 0,0 c 1.646,0.896 2.465,2.544 2.465,5.362 0,4.96 -2.635,6.489 -7.765,6.489 l -8.511,0 0,-3.89 8.719,0 c 3.305,0 3.896,-1.053 3.896,-2.546 0,-1.493 -0.479,-2.772 -3.784,-2.772 l -8.718,0.001 -0.006,-3.575 8.513,0 c 0.082,0 0.161,0 0.24,0.002 1.69,-0.183 3.008,-1.619 3.008,-3.363 0,-0.561 0.098,-1.088 -0.142,-1.553 0.002,-0.065 0.234,-0.131 0.234,-0.198 l 3.516,0 c 0,0 0.64,3.811 -1.665,6.043"
           style="fill:#3484a3;fill-opacity:1;fill-rule:evenodd;stroke:none"
           id="path58" />
      </g>
      <g
         id="g60"
         transform="translate(288.7344,131.3232)">
        <path
           inkscape:connector-curvature="0"
           d="m 0,0 c 0,3.045 2.368,5.516 5.287,5.516 2.92,0 5.286,-2.471 5.286,-5.516 0,-3.048 -2.366,-5.516 -5.286,-5.516 C 2.368,-5.516 0,-3.048 0,0 m -3.544,0 c 0,-5.088 3.953,-9.213 8.831,-9.213 4.878,0 8.832,4.125 8.832,9.213 0,5.086 -3.954,9.211 -8.832,9.211 C 0.409,9.211 -3.544,5.086 -3.544,0"
           style="fill:#3484a3;fill-opacity:1;fill-rule:evenodd;stroke:none"
           id="path62" />
      </g>
      <path
         inkscape:connector-curvature="0"
         d="m 307.165,140.014 3.871,0 0,-17.894 -3.871,0 0,17.894 z"
         style="fill:#3484a3;fill-opacity:1;fill-rule:evenodd;stroke:none"
         id="path64" />
      <g
         id="g66"
         transform="translate(220.0879,244.3525)">
        <path
           inkscape:connector-curvature="0"
           d="m 0,0 c -4.171,0 -7.553,-3.435 -7.553,-7.671 l 0,-29.978 c 0,-4.237 3.382,-7.671 7.553,-7.671 4.171,0 7.553,3.434 7.553,7.671 l 0,29.978 C 7.553,-3.435 4.171,0 0,0 m 91.105,0 c -4.17,0 -7.552,-3.435 -7.552,-7.671 l 0,-29.978 c 0,-4.237 3.382,-7.671 7.552,-7.671 4.172,0 7.554,3.434 7.554,7.671 l 0,29.978 C 98.659,-3.435 95.277,0 91.105,0"
           style="fill:#aaca3c;fill-opacity:1;fill-rule:evenodd;stroke:none"
           id="path68" />
      </g>
      <g
         id="g70"
         transform="translate(232.1865,244.1206)">
        <path
           inkscape:connector-curvature="0"
           d="m 0,0 0,-54.77 c 0,-3.253 2.637,-5.89 5.89,-5.89 l 6.73,0 0,-16.678 c 0,-4.238 3.381,-7.672 7.553,-7.672 4.171,0 7.553,3.434 7.553,7.672 l 0,16.678 11.756,0 0,-16.678 c 0,-4.238 3.382,-7.672 7.553,-7.672 4.172,0 7.554,3.434 7.554,7.672 l 0,16.678 6.728,0 c 3.254,0 5.891,2.637 5.891,5.89 L 67.208,0 0,0 Z"
           style="fill:#aaca3c;fill-opacity:1;fill-rule:evenodd;stroke:none"
           id="path72" />
      </g>
      <g
         id="g74"
         transform="translate(280.2832,258.2979)">
        <path
           inkscape:connector-curvature="0"
           d="m 0,0 c -2.054,0 -3.719,1.665 -3.719,3.718 0,2.054 1.665,3.719 3.719,3.719 2.054,0 3.719,-1.665 3.719,-3.719 C 3.719,1.665 2.054,0 0,0 m -28.82,0 c -2.054,0 -3.718,1.665 -3.718,3.718 0,2.054 1.664,3.719 3.718,3.719 2.054,0 3.719,-1.665 3.719,-3.719 C -25.101,1.665 -26.766,0 -28.82,0 m 30.108,14.203 6.209,9.013 c 0.368,0.535 0.277,1.238 -0.205,1.57 -0.481,0.332 -1.171,0.167 -1.539,-0.369 l -6.449,-9.361 c -4.25,1.674 -8.972,2.607 -13.947,2.607 -4.974,0 -9.695,-0.933 -13.945,-2.607 l -6.449,9.361 c -0.369,0.536 -1.058,0.701 -1.54,0.369 -0.482,-0.332 -0.573,-1.035 -0.205,-1.57 l 6.209,-9.013 c -9.87,-4.592 -16.793,-13.316 -17.674,-23.5 l 67.209,0 C 18.081,0.887 11.159,9.611 1.288,14.203"
           style="fill:#aaca3c;fill-opacity:1;fill-rule:evenodd;stroke:none"
           id="path76" />
      </g>
    </g>
  </g>
</svg>
