<?xml version="1.0" encoding="UTF-8" standalone="no"?>
<!-- Created with Inkscape (http://www.inkscape.org/) -->

<svg
   xmlns:dc="http://purl.org/dc/elements/1.1/"
   xmlns:cc="http://creativecommons.org/ns#"
   xmlns:rdf="http://www.w3.org/1999/02/22-rdf-syntax-ns#"
   xmlns:svg="http://www.w3.org/2000/svg"
   xmlns="http://www.w3.org/2000/svg"
   xmlns:xlink="http://www.w3.org/1999/xlink"
   xmlns:sodipodi="http://sodipodi.sourceforge.net/DTD/sodipodi-0.dtd"
   xmlns:inkscape="http://www.inkscape.org/namespaces/inkscape"
   width="219"
   height="219"
   id="svg3214"
   version="1.1"
   inkscape:version="0.48.4 r9939"
   sodipodi:docname="Nuevo documento 3">
  <defs
     id="defs3216">
    <linearGradient
       inkscape:collect="always"
       xlink:href="#outerBackgroundGradient-34"
       id="linearGradient4254"
       x1="35"
       y1="156"
       x2="253"
       y2="156"
       gradientUnits="userSpaceOnUse"
       gradientTransform="matrix(0,-1,1,0,-12,300)" />
    <linearGradient
       id="outerBackgroundGradient-34">
      <stop
         style="stop-color:#202020;stop-opacity:1;"
         offset="0"
         id="stop3864-8-6-34" />
      <stop
         style="stop-color:#363636;stop-opacity:1;"
         offset="1"
         id="stop3866-9-1-78" />
    </linearGradient>
    <linearGradient
       y2="156"
       x2="253"
       y1="156"
       x1="35"
       gradientTransform="matrix(0,-1,1,0,194,676.36218)"
       gradientUnits="userSpaceOnUse"
       id="linearGradient3212"
       xlink:href="#outerBackgroundGradient-34"
       inkscape:collect="always" />
  </defs>
  <sodipodi:namedview
     id="base"
     pagecolor="#ffffff"
     bordercolor="#666666"
     borderopacity="1.0"
     inkscape:pageopacity="0.0"
     inkscape:pageshadow="2"
     inkscape:zoom="0.35"
     inkscape:cx="109.5"
     inkscape:cy="109.5"
     inkscape:document-units="px"
     inkscape:current-layer="layer1"
     showgrid="false"
     fit-margin-top="0"
     fit-margin-left="0"
     fit-margin-right="0"
     fit-margin-bottom="0"
     inkscape:window-width="569"
     inkscape:window-height="443"
     inkscape:window-x="661"
     inkscape:window-y="401"
     inkscape:window-maximized="0" />
  <metadata
     id="metadata3219">
    <rdf:RDF>
      <cc:Work
         rdf:about="">
        <dc:format>image/svg+xml</dc:format>
        <dc:type
           rdf:resource="http://purl.org/dc/dcmitype/StillImage" />
        <dc:title></dc:title>
      </cc:Work>
    </rdf:RDF>
  </metadata>
  <g
     inkscape:label="Capa 1"
     inkscape:groupmode="layer"
     id="layer1"
     transform="translate(-240.5,-422.86218)">
    <path
       style="color:#bebebe;fill:url(#linearGradient3212);fill-opacity:1;fill-rule:nonzero;stroke:none;stroke-width:2;marker:none;visibility:visible;display:inline;overflow:visible;enable-background:accumulate"
       d="m 290,422.86218 c -27.43127,0 -49.5,22.06873 -49.5,49.5 l 0,120 c 0,27.43127 22.06873,49.5 49.5,49.5 l 120,0 c 27.43127,0 49.5,-22.06873 49.5,-49.5 l 0,-120 c 0,-27.43127 -22.06873,-49.5 -49.5,-49.5 l -120,0 z"
       id="path4200"
       inkscape:connector-curvature="0" />
    <path
       inkscape:connector-curvature="0"
       style="opacity:0.05;fill:none;stroke:#000000;stroke-opacity:1;display:inline;enable-background:new"
       d="m 321.41164,449.33381 c 0.21458,0 -0.39644,0.11164 -0.60345,0.22629 -0.73606,0.40798 -1.01145,1.30053 -0.60345,2.03664 l 7.24138,13.04957 c -13.9467,7.25683 -23.36474,21.05836 -23.38362,36.88577 l 91.79957,0 c -0.0193,-15.82741 -9.43692,-29.62894 -23.38362,-36.88577 l 7.24138,-13.04957 c 0.408,-0.73611 0.20807,-1.62866 -0.52802,-2.03664 -0.27602,-0.15303 -0.62674,-0.24814 -0.90517,-0.22629 -0.46408,0.0364 -0.87647,0.36975 -1.13147,0.82974 l -7.31681,13.20043 c -6.00733,-2.66463 -12.72788,-4.1487 -19.83836,-4.1487 -7.11048,0 -13.90649,1.48407 -19.91379,4.1487 l -7.31681,-13.20043 c -0.25502,-0.45999 -0.66739,-0.79336 -1.13147,-0.82974 -0.0695,-0.005 -0.15509,-0.005 -0.22629,0 z m 8.07112,28.06034 c 1.99966,0 3.62069,1.62103 3.62069,3.62069 0,1.99966 -1.62103,3.62069 -3.62069,3.62069 -1.99966,0 -3.62069,-1.62103 -3.62069,-3.62069 0,-1.99966 1.62103,-3.62069 3.62069,-3.62069 z m 41.03448,0 c 1.99966,0 3.62069,1.62103 3.62069,3.62069 0,1.99966 -1.62103,3.62069 -3.62069,3.62069 -1.99966,0 -3.62069,-1.62103 -3.62069,-3.62069 0,-1.99966 1.62103,-3.62069 3.62069,-3.62069 z m -80.86207,26.55173 c -5.34896,0 -9.65517,4.3062 -9.65517,9.65517 l 0,45.86207 c 0,5.34896 4.30621,9.65517 9.65517,9.65517 5.34897,0 9.65517,-4.30621 9.65517,-9.65517 l 0,-45.86207 c 0,-5.34897 -4.3062,-9.65517 -9.65517,-9.65517 z m 120.68966,0 c -5.34897,0 -9.65517,4.3062 -9.65517,9.65517 l 0,45.86207 c 0,5.34896 4.3062,9.65517 9.65517,9.65517 5.34896,0 9.65517,-4.30621 9.65517,-9.65517 l 0,-45.86207 c 0,-5.34897 -4.30621,-9.65517 -9.65517,-9.65517 z m -106.2069,2.41379 0,67.58621 c 0,0 0,9.65517 9.65517,9.65517 l 7.24138,0 0,24.13793 c 0,5.73058 3.92464,9.65517 9.65518,9.65517 5.73053,0 9.65517,-3.92459 9.65517,-9.65517 l 0,-24.13793 19.31034,0 0,24.13793 c 0,5.73058 3.92464,9.65517 9.65517,9.65517 5.73054,0 9.65518,-3.92459 9.65518,-9.65517 l 0,-24.13793 7.24138,0 c 9.65517,0 9.65517,-9.65517 9.65517,-9.65517 l 0.0754,-67.58621 -91.79957,0 z m 7.16595,7.24138 4.82759,0 67.5862,0 4.82759,0 0,4.82759 0,14.48275 0,38.62069 c 0,2.67449 -2.1531,4.82759 -4.82759,4.82759 l -67.5862,0 c -2.67449,0 -4.82759,-2.1531 -4.82759,-4.82759 l 0,-38.62069 0,-14.48275 0,-4.82759 z m 38.62069,4.82759 c 0,0 -1.43968,-0.004 -2.48923,0.45258 0,0 -0.34621,0.98289 -0.60344,3.77155 -0.31524,3.41075 -1.57706,4.44773 -3.16811,5.5819 -0.37628,0.14072 -0.76297,0.28515 -1.13146,0.45259 -1.92737,0.32356 -3.55055,0.52924 -6.18535,-1.65949 -2.15361,-1.78937 -3.09267,-2.26293 -3.09267,-2.26293 -1.06311,0.41752 -2.11207,1.43319 -2.11207,1.43319 0,0 -1.01401,1.04671 -1.43319,2.11207 0,0 0.47364,0.93915 2.26293,3.09267 2.18888,2.63466 1.9824,4.25858 1.65949,6.18535 -0.1668,0.36756 -0.31119,0.7554 -0.45259,1.13146 -1.1333,1.59198 -2.17126,2.85247 -5.5819,3.16811 -2.78807,0.25755 -3.77155,0.60345 -3.77155,0.60345 -0.45621,1.05072 -0.45259,2.48922 -0.45259,2.48922 0,0 -0.004,1.43983 0.45259,2.48922 0,0 0.98292,0.34703 3.77155,0.60345 3.41055,0.3156 4.44693,1.57769 5.5819,3.16811 0.14121,0.37667 0.28562,0.7634 0.45259,1.13146 0.32431,1.92726 0.52917,3.5508 -1.65949,6.18535 -1.78932,2.15405 -2.26293,3.09267 -2.26293,3.09267 0.42073,1.06529 1.43319,2.11207 1.43319,2.11207 0,0 1.04703,1.01434 2.11207,1.43319 0,0 0.93918,-0.47242 3.09267,-2.26293 2.6349,-2.18858 4.25839,-1.98119 6.18535,-1.65949 0.3687,0.16728 0.75496,0.31216 1.13146,0.45259 1.59217,1.13353 2.85243,2.17137 3.16811,5.5819 0.25755,2.78824 0.60344,3.77155 0.60344,3.77155 1.0508,0.45537 2.48923,0.45258 2.48923,0.45258 0,0 1.44024,0.005 2.48922,-0.45258 0,0 0.34665,-0.98244 0.60345,-3.77155 0.3156,-3.41053 1.57853,-4.44712 3.1681,-5.5819 0.37629,-0.14073 0.76325,-0.28584 1.13147,-0.45259 1.92717,-0.32432 3.55052,-0.52928 6.18535,1.65949 2.15358,1.78934 3.09267,2.26293 3.09267,2.26293 1.06549,-0.42116 2.11207,-1.43319 2.11207,-1.43319 0,0 1.01425,-1.04694 1.43319,-2.11207 0,0 -0.47202,-0.93907 -2.26293,-3.09267 -2.18888,-2.63466 -1.98163,-4.25873 -1.65949,-6.18535 0.16728,-0.3687 0.31208,-0.75514 0.45259,-1.13146 1.13354,-1.59172 2.17123,-2.85243 5.5819,-3.16811 2.78848,-0.25756 3.77155,-0.60345 3.77155,-0.60345 0.45521,-1.05079 0.45258,-2.48922 0.45258,-2.48922 0,0 0.004,-1.43926 -0.45258,-2.48922 0,0 -0.98275,-0.3465 -3.77155,-0.60345 -3.41086,-0.31522 -4.4472,-1.57712 -5.5819,-3.16811 -0.14073,-0.37629 -0.28435,-0.76352 -0.45259,-1.13146 -0.32354,-1.92658 -0.52927,-3.5505 1.65949,-6.18535 1.78939,-2.1536 2.26293,-3.09267 2.26293,-3.09267 -0.42041,-1.06506 -1.43319,-2.11207 -1.43319,-2.11207 0,0 -1.04694,-1.01423 -2.11207,-1.43319 0,0 -0.93827,0.39703 -3.09267,2.1875 -2.63471,2.18892 -4.25784,2.05806 -6.18535,1.73492 -0.36719,-0.16767 -0.75484,-0.31167 -1.13147,-0.45259 -1.59172,-1.1336 -2.85278,-2.171 -3.1681,-5.5819 -0.25791,-2.78816 -0.60345,-3.77155 -0.60345,-3.77155 -1.05033,-0.45655 -2.48922,-0.45258 -2.48922,-0.45258 z m 0,14.1056 c 3.17807,-10e-6 6.32513,1.27125 8.75,3.69612 4.84974,4.84971 4.84965,12.65037 0,17.5 -4.84975,4.84971 -12.65028,4.84971 -17.5,0 -4.84977,-4.84975 -4.84975,-12.65026 0,-17.5 2.42482,-2.42482 5.57193,-3.69612 8.75,-3.69612 z"
       id="path3916" />
    <path
       id="path3854"
       d="m 321.41164,449.33381 c 0.21458,0 -0.39644,0.11164 -0.60345,0.22629 -0.73606,0.40798 -1.01145,1.30053 -0.60345,2.03664 l 7.24138,13.04957 c -13.9467,7.25683 -23.36474,21.05836 -23.38362,36.88577 l 91.79957,0 c -0.0193,-15.82741 -9.43692,-29.62894 -23.38362,-36.88577 l 7.24138,-13.04957 c 0.408,-0.73611 0.20807,-1.62866 -0.52802,-2.03664 -0.27602,-0.15303 -0.62674,-0.24814 -0.90517,-0.22629 -0.46408,0.0364 -0.87647,0.36975 -1.13147,0.82974 l -7.31681,13.20043 c -6.00733,-2.66463 -12.72788,-4.1487 -19.83836,-4.1487 -7.11048,0 -13.90649,1.48407 -19.91379,4.1487 l -7.31681,-13.20043 c -0.25502,-0.45999 -0.66739,-0.79336 -1.13147,-0.82974 -0.0695,-0.005 -0.15509,-0.005 -0.22629,0 z m 8.07112,28.06034 c 1.99966,0 3.62069,1.62103 3.62069,3.62069 0,1.99966 -1.62103,3.62069 -3.62069,3.62069 -1.99966,0 -3.62069,-1.62103 -3.62069,-3.62069 0,-1.99966 1.62103,-3.62069 3.62069,-3.62069 z m 41.03448,0 c 1.99966,0 3.62069,1.62103 3.62069,3.62069 0,1.99966 -1.62103,3.62069 -3.62069,3.62069 -1.99966,0 -3.62069,-1.62103 -3.62069,-3.62069 0,-1.99966 1.62103,-3.62069 3.62069,-3.62069 z m -80.86207,26.55173 c -5.34896,0 -9.65517,4.3062 -9.65517,9.65517 l 0,45.86207 c 0,5.34896 4.30621,9.65517 9.65517,9.65517 5.34897,0 9.65517,-4.30621 9.65517,-9.65517 l 0,-45.86207 c 0,-5.34897 -4.3062,-9.65517 -9.65517,-9.65517 z m 120.68966,0 c -5.34897,0 -9.65517,4.3062 -9.65517,9.65517 l 0,45.86207 c 0,5.34896 4.3062,9.65517 9.65517,9.65517 5.34896,0 9.65517,-4.30621 9.65517,-9.65517 l 0,-45.86207 c 0,-5.34897 -4.30621,-9.65517 -9.65517,-9.65517 z m -106.2069,2.41379 0,67.58621 c 0,0 0,9.65517 9.65517,9.65517 l 7.24138,0 0,24.13793 c 0,5.73058 3.92464,9.65517 9.65518,9.65517 5.73053,0 9.65517,-3.92459 9.65517,-9.65517 l 0,-24.13793 19.31034,0 0,24.13793 c 0,5.73058 3.92464,9.65517 9.65517,9.65517 5.73054,0 9.65518,-3.92459 9.65518,-9.65517 l 0,-24.13793 7.24138,0 c 9.65517,0 9.65517,-9.65517 9.65517,-9.65517 l 0.0754,-67.58621 -91.79957,0 z m 7.16595,7.24138 4.82759,0 67.5862,0 4.82759,0 0,4.82759 0,14.48275 0,38.62069 c 0,2.67449 -2.1531,4.82759 -4.82759,4.82759 l -67.5862,0 c -2.67449,0 -4.82759,-2.1531 -4.82759,-4.82759 l 0,-38.62069 0,-14.48275 0,-4.82759 z m 38.62069,4.82759 c 0,0 -1.43968,-0.004 -2.48923,0.45258 0,0 -0.34621,0.98289 -0.60344,3.77155 -0.31524,3.41075 -1.57706,4.44773 -3.16811,5.5819 -0.37628,0.14072 -0.76297,0.28515 -1.13146,0.45259 -1.92737,0.32356 -3.55055,0.52924 -6.18535,-1.65949 -2.15361,-1.78937 -3.09267,-2.26293 -3.09267,-2.26293 -1.06311,0.41752 -2.11207,1.43319 -2.11207,1.43319 0,0 -1.01401,1.04671 -1.43319,2.11207 0,0 0.47364,0.93915 2.26293,3.09267 2.18888,2.63466 1.9824,4.25858 1.65949,6.18535 -0.1668,0.36756 -0.31119,0.7554 -0.45259,1.13146 -1.1333,1.59198 -2.17126,2.85247 -5.5819,3.16811 -2.78807,0.25755 -3.77155,0.60345 -3.77155,0.60345 -0.45621,1.05072 -0.45259,2.48922 -0.45259,2.48922 0,0 -0.004,1.43983 0.45259,2.48922 0,0 0.98292,0.34703 3.77155,0.60345 3.41055,0.3156 4.44693,1.57769 5.5819,3.16811 0.14121,0.37667 0.28562,0.7634 0.45259,1.13146 0.32431,1.92726 0.52917,3.5508 -1.65949,6.18535 -1.78932,2.15405 -2.26293,3.09267 -2.26293,3.09267 0.42073,1.06529 1.43319,2.11207 1.43319,2.11207 0,0 1.04703,1.01434 2.11207,1.43319 0,0 0.93918,-0.47242 3.09267,-2.26293 2.6349,-2.18858 4.25839,-1.98119 6.18535,-1.65949 0.3687,0.16728 0.75496,0.31216 1.13146,0.45259 1.59217,1.13353 2.85243,2.17137 3.16811,5.5819 0.25755,2.78824 0.60344,3.77155 0.60344,3.77155 1.0508,0.45537 2.48923,0.45258 2.48923,0.45258 0,0 1.44024,0.005 2.48922,-0.45258 0,0 0.34665,-0.98244 0.60345,-3.77155 0.3156,-3.41053 1.57853,-4.44712 3.1681,-5.5819 0.37629,-0.14073 0.76325,-0.28584 1.13147,-0.45259 1.92717,-0.32432 3.55052,-0.52928 6.18535,1.65949 2.15358,1.78934 3.09267,2.26293 3.09267,2.26293 1.06549,-0.42116 2.11207,-1.43319 2.11207,-1.43319 0,0 1.01425,-1.04694 1.43319,-2.11207 0,0 -0.47202,-0.93907 -2.26293,-3.09267 -2.18888,-2.63466 -1.98163,-4.25873 -1.65949,-6.18535 0.16728,-0.3687 0.31208,-0.75514 0.45259,-1.13146 1.13354,-1.59172 2.17123,-2.85243 5.5819,-3.16811 2.78848,-0.25756 3.77155,-0.60345 3.77155,-0.60345 0.45521,-1.05079 0.45258,-2.48922 0.45258,-2.48922 0,0 0.004,-1.43926 -0.45258,-2.48922 0,0 -0.98275,-0.3465 -3.77155,-0.60345 -3.41086,-0.31522 -4.4472,-1.57712 -5.5819,-3.16811 -0.14073,-0.37629 -0.28435,-0.76352 -0.45259,-1.13146 -0.32354,-1.92658 -0.52927,-3.5505 1.65949,-6.18535 1.78939,-2.1536 2.26293,-3.09267 2.26293,-3.09267 -0.42041,-1.06506 -1.43319,-2.11207 -1.43319,-2.11207 0,0 -1.04694,-1.01423 -2.11207,-1.43319 0,0 -0.93827,0.39703 -3.09267,2.1875 -2.63471,2.18892 -4.25784,2.05806 -6.18535,1.73492 -0.36719,-0.16767 -0.75484,-0.31167 -1.13147,-0.45259 -1.59172,-1.1336 -2.85278,-2.171 -3.1681,-5.5819 -0.25791,-2.78816 -0.60345,-3.77155 -0.60345,-3.77155 -1.05033,-0.45655 -2.48922,-0.45258 -2.48922,-0.45258 z m 0,14.1056 c 3.17807,-10e-6 6.32513,1.27125 8.75,3.69612 4.84974,4.84971 4.84965,12.65037 0,17.5 -4.84975,4.84971 -12.65028,4.84971 -17.5,0 -4.84977,-4.84975 -4.84975,-12.65026 0,-17.5 2.42482,-2.42482 5.57193,-3.69612 8.75,-3.69612 z"
       style="fill:#a4c639;stroke:none;display:inline;enable-background:new"
       inkscape:connector-curvature="0" />
  </g>
</svg>
